<?xml version="1.0" encoding="utf-8"?>
<!-- Generator: Adobe Illustrator 15.0.0, SVG Export Plug-In . SVG Version: 6.00 Build 0)  -->
<!DOCTYPE svg PUBLIC "-//W3C//DTD SVG 1.1//EN" "http://www.w3.org/Graphics/SVG/1.1/DTD/svg11.dtd">
<svg version="1.1" id="Calque_1" xmlns="http://www.w3.org/2000/svg" xmlns:xlink="http://www.w3.org/1999/xlink" x="0px" y="0px"
	 width="120.213px" height="123.404px" viewBox="0 0 120.213 123.404" enable-background="new 0 0 120.213 123.404"
	 xml:space="preserve">
<g id="Calque_9" opacity="0.5">
	<path fill="#333333" d="M85.16,28.295H35.053c-4.606,0-8.35,3.755-8.35,8.358v2.777H93.51v-2.777
		C93.519,32.037,89.772,28.295,85.16,28.295z M70.58,22.727l1.226,8.798H48.42l1.226-8.798H70.58 M71.238,17.159H48.975
		c-2.302,0-4.434,1.858-4.756,4.131l-1.623,11.662c-0.323,2.277,1.296,4.132,3.594,4.132h27.839c2.298,0,3.921-1.854,3.602-4.132
		L75.995,21.29C75.677,19.018,73.544,17.159,71.238,17.159L71.238,17.159z M86.552,44.999H33.664c-3.062,0-5.338,2.496-5.067,5.547
		l4.566,50.152c0.271,3.059,3.002,5.547,6.067,5.547h41.761c3.068,0,5.796-2.488,6.073-5.547l4.546-50.152
		C91.892,47.487,89.619,44.999,86.552,44.999z M48.975,95.101h-8.352l-2.788-38.959h11.136L48.975,95.101L48.975,95.101z
		 M65.679,95.101H54.541V56.142h11.138V95.101L65.679,95.101z M79.588,95.101h-8.35V56.142h11.148L79.588,95.101z"/>
</g>
<path opacity="0.5" fill="#333333" d="M106.04,0H14.173C6.346,0,0,6.346,0,14.173v95.059c0,7.827,6.346,14.173,14.173,14.173h91.867
	c7.827,0,14.173-6.346,14.173-14.173V14.173C120.213,6.346,113.867,0,106.04,0z M109.575,100.819
	c0,6.442-5.223,11.665-11.664,11.665H22.304c-6.443,0-11.666-5.223-11.666-11.665V22.585c0-6.442,5.223-11.665,11.666-11.665h75.607
	c6.441,0,11.664,5.223,11.664,11.665V100.819z"/>
</svg>
